<?xml version="1.0" encoding="UTF-8"?>
<!DOCTYPE svg PUBLIC "-//W3C//DTD SVG 1.1//EN" "http://www.w3.org/Graphics/SVG/1.1/DTD/svg11.dtd">
<!-- Creator: CorelDRAW -->
<svg xmlns="http://www.w3.org/2000/svg" xml:space="preserve" width="34mm" height="34mm" style="shape-rendering:geometricPrecision; text-rendering:geometricPrecision; image-rendering:optimizeQuality; fill-rule:evenodd; clip-rule:evenodd"
viewBox="0 0 34 34"
 xmlns:xlink="http://www.w3.org/1999/xlink">
 <defs>
  <style type="text/css">
   <![CDATA[
    .str0 {stroke:#FEFEFE;stroke-width:0.2}
    .fil0 {fill:#FEFEFE}
   ]]>
  </style>
 </defs>
 <g id="Layer_x0020_1">
  <metadata id="CorelCorpID_0Corel-Layer"/>
  <path class="fil0 str0" d="M13.0796 4.0182c-2.3509,-1.4604 -3.852,-2.6636 -4.2661,-2.4961 -1.1687,0.4728 0.2877,0.9836 3.6352,2.9328 -0.5622,0.3712 -0.5521,1.1239 -0.7131,1.8138 -10.4202,4.4955 -9.859,9.3914 -9.7111,19.1295 1.4721,-6.4771 4.8131,-3.7567 6.8645,-9.5973 0.0804,-0.2286 0.0363,-0.2184 0.2225,-0.0646 2.4974,2.0601 3.7416,2.9611 6.7915,3.4822 0.3504,0.0597 0.2446,0.0346 0.0324,-0.2232 -0.603,-0.7321 -1.206,-1.4645 -1.809,-2.1965 -0.1318,-0.1602 -0.3157,-0.3355 -0.0228,-0.0966 7.0281,5.7259 12.2203,0.9827 15.9933,6.1564 0.7391,1.8668 0.532,1.0998 0.8202,-0.5821 -1.7799,-4.8553 4.4053,2.9395 0.9528,-1.8521 -4.2394,-5.4479 -2.7414,-10.9212 -10.8011,-14.192 -0.2733,-0.7673 -0.3028,-0.8497 -0.5762,-1.617 3.7893,-2.4449 5.7113,-4.4901 -0.45,-1.0849 -2.8926,-1.1187 -4.2516,-1.4164 -6.963,0.4877z"/>
  <path class="fil0 str0" d="M17.5964 24.8649c0,-0.3264 0,-0.6526 0,-0.979 0.0866,-0.7712 0.537,-1.2775 1.3998,-1.4841 2.7326,0 5.4652,0 8.1979,0 0.7696,0.3232 1.2497,0.8187 1.4567,1.4772 0,2.379 0,4.7581 0,7.1371 -0.2406,0.7183 -0.7118,1.2108 -1.4571,1.4352 -2.7229,0 -5.446,0 -8.1689,0 -0.7715,-0.344 -1.2779,-0.8087 -1.4284,-1.435 0,-1.594 0,-3.188 0,-4.782 -0.8229,-0.2737 -1.6781,-0.2907 -2.5716,-0.0001 0,1.594 0,3.188 0,4.7819 -0.2406,0.7183 -0.7118,1.2108 -1.4571,1.4352 -2.7229,0 -5.446,0 -8.1689,0 -0.7715,-0.344 -1.2779,-0.8087 -1.4284,-1.435 0,-2.3768 0,-4.7536 0,-7.1304 0.0866,-0.7712 0.537,-1.2775 1.3998,-1.4841 2.7326,0 5.4652,0 8.1979,0 0.7696,0.3232 1.2497,0.8187 1.4567,1.4772 0,0.1645 0,0.3289 0,0.4934 0,0.1644 0,0.3289 0,0.4933 0.8925,-0.4229 1.7497,-0.4245 2.5716,-0.0008m-11.2546 -1.2069c2.1115,0 4.2231,0 6.3348,0 0.5946,0.2424 0.9656,0.614 1.1256,1.1079 0,1.7842 0,3.5685 0,5.3528 -0.186,0.5387 -0.5501,0.9081 -1.126,1.0764 -2.1041,0 -4.2083,0 -6.3123,0 -0.5962,-0.258 -0.9875,-0.6065 -1.1038,-1.0763 0,-1.7826 0,-3.5651 0,-5.3477 0.0669,-0.5784 0.4149,-0.9582 1.0817,-1.1131zm13.626 0c2.1115,0 4.2231,0 6.3348,0 0.5946,0.2424 0.9656,0.614 1.1256,1.1079 0,1.7842 0,3.5685 0,5.3528 -0.186,0.5387 -0.5501,0.9081 -1.126,1.0764 -2.1041,0 -4.2083,0 -6.3123,0 -0.5962,-0.258 -0.9875,-0.6065 -1.1038,-1.0763 0,-1.7826 0,-3.5651 0,-5.3477 0.0669,-0.5784 0.4149,-0.9582 1.0817,-1.1131z"/>
 </g>
</svg>
